<svg xmlns="http://www.w3.org/2000/svg" enable-background="new 0 0 47.5 47.5" viewBox="0 0 47.5 47.5"><defs><clipPath id="a" clipPathUnits="userSpaceOnUse"><path d="M 0,38 38,38 38,0 0,0 0,38 Z"/></clipPath></defs><g clip-path="url(#a)" transform="matrix(1.25 0 0 -1.25 0 47.5)"><path fill="#5dadec" d="m 0,0 -6.363,-1.301 c -0.45,-0.093 -0.819,-0.544 -0.819,-1.003 l 0,-1.529 0,-2.255 0,-12.073 c -0.613,0.209 -1.287,0.328 -2,0.328 -2.761,0 -5,-1.741 -5,-3.888 0,-2.148 2.239,-3.889 5,-3.889 2.713,0 4.909,1.683 4.986,3.777 l 0.014,0 0,15.523 L 0,-5.455 c 0.45,0.093 0.818,0.544 0.818,1.003 l 0,3.785 C 0.818,-0.208 0.45,0.092 0,0" transform="translate(15.182 36.833)"/><path fill="#5dadec" d="m 0,0 -6.363,-1.301 c -0.45,-0.093 -0.819,-0.544 -0.819,-1.003 l 0,-1.529 0,-2.255 0,-12.073 c -0.613,0.209 -1.288,0.328 -2,0.328 -2.761,0 -5,-1.741 -5,-3.888 0,-2.148 2.239,-3.889 5,-3.889 2.713,0 4.909,1.683 4.986,3.777 l 0.014,0 0,15.523 L 0,-5.455 c 0.45,0.093 0.818,0.544 0.818,1.003 l 0,3.785 C 0.818,-0.208 0.45,0.092 0,0" transform="translate(36.182 32.833)"/><path fill="#5dadec" d="m 0,0 -6.363,-1.301 c -0.45,-0.093 -0.819,-0.544 -0.819,-1.003 l 0,-1.529 0,-2.255 0,-12.073 c -0.613,0.209 -1.287,0.328 -2,0.328 -2.761,0 -5,-1.741 -5,-3.888 0,-2.148 2.239,-3.889 5,-3.889 2.713,0 4.909,1.683 4.986,3.777 l 0.014,0 0,15.523 L 0,-5.455 c 0.45,0.093 0.818,0.544 0.818,1.003 l 0,3.785 C 0.818,-0.208 0.45,0.092 0,0" transform="translate(24.182 26.832)"/></g></svg>