<svg xmlns="http://www.w3.org/2000/svg"  viewBox="0 0 480.003 480.003" width="120px" height="120px"><path fill="#d1e7ff" d="M455.69,160.297l-151.577,34.781c-11.492,2.637-21.791-7.639-19.181-19.137l34.427-151.654	c2.068-9.11,11.489-14.584,20.383-11.73c60.389,19.379,108.121,67.008,127.632,127.331	C470.247,148.775,464.794,158.208,455.69,160.297z"/><path fill="#e8f3ff" d="M364.657,22.477c5.172,2.481,7.526,8.388,5.932,13.898c-0.207,0.715-32.934,144.992-32.77,144.266	c-0.981,4.323-4.352,7.703-8.673,8.695l-25.032,5.747c-11.49,2.63-21.79-7.64-19.18-19.14l34.42-151.661	c2.07-9.11,11.49-14.58,20.39-11.73C348.319,15.307,356.638,18.63,364.657,22.477z"/><path fill="#d1e7ff" d="M401.5,247.238c-1.275-9.283-10.293-15.44-19.426-13.346c-0.452,0.104-175.92,40.362-176.369,40.471	c0.108-0.448,39.956-176.011,40.058-176.46c2.073-9.132-4.096-18.137-13.376-19.392C113.324,62.414,8.283,154.887,8.064,274.003	c0,110.238,89.074,198,197.64,198C325.14,472.003,417.894,366.588,401.5,247.238z"/><path fill="#b9dcff" d="M344.204,415.343c-35.66,35.05-84.55,56.66-138.5,56.66c-108.358,0-197.64-87.558-197.64-198	c212.233,0,197.775-0.198,197.64,0.36C206.147,274.256,199.26,267.42,344.204,415.343z"/><path fill="#b9dcff" d="M232.386,78.511c9.279,1.255,15.449,10.26,13.376,19.392l-39.988,176.17	c-0.109-0.109,9.377-0.07-197.71-0.07C8.283,154.864,113.343,62.417,232.386,78.511z"/><path fill="#d1e7ff" d="M30.655,366.196c-14.424-27.465-22.591-58.799-22.591-92.193h56.48	c-6.935,26.368-8.427,54.528-3.902,82.311C63.55,374.167,39.065,382.21,30.655,366.196z"/><path fill="#d1e7ff" d="M245.764,97.903l-4.182,18.418c-1.464,6.449-6.739,11.378-13.29,12.287	c-79.417,11.02-143.745,69.23-163.748,145.395H8.064c0.219-119.153,105.303-211.591,224.32-195.49	C241.664,79.762,247.834,88.773,245.764,97.903z"/><path fill="#2e58ff" d="M406.175,228.369c29.6,129.199-69.174,251.634-200.471,251.634	c-118.005,0-207.78-99.192-205.63-205.82c-0.094-4.584,3.578-8.18,7.991-8.18h141c4.418,0,8,3.582,8,8s-3.582,8-8,8H16.231	c4.025,101.038,87.465,182,189.472,182c117.73,0,208.081-107.031,186.495-224.222L221.703,278.9l85.229,86.979	c3.093,3.155,3.041,8.221-0.114,11.313c-3.164,3.099-8.228,3.035-11.313-0.114l-93.958-95.887c-2.509-1.53-3.854-4.174-3.828-6.902	c-0.044-1.25-3.023,12.43,42.14-186.493C148.85,71.254,60.271,123.136,28.389,206.963c-1.571,4.129-6.192,6.2-10.321,4.634	c-4.13-1.57-6.204-6.191-4.634-10.321c36.459-95.86,137.897-150.086,237.801-127.486c4.31,0.976,7.014,5.264,6.036,9.574	l-40.948,180.355c194.311-44.584,182.289-42.857,186.303-40.342C404.425,224.505,405.701,226.301,406.175,228.369z M479.764,154.784	C462.266,78.198,401.448,17.52,324.822,0.2c-4.301-0.978-8.588,1.725-9.565,6.031l-43.766,192.771	c-1.301,5.731,3.836,10.885,9.591,9.569l141.606-32.491c4.307-0.988,6.996-5.28,6.009-9.587c-0.989-4.305-5.278-6.996-9.587-6.009	L289.913,190.13l39.14-172.395c66.983,18.188,119.574,72.597,135.114,140.613c0.983,4.307,5.271,6.997,9.581,6.017	C478.054,163.382,480.749,159.092,479.764,154.784z"/></svg>