<svg xmlns="http://www.w3.org/2000/svg" xmlns:xlink="http://www.w3.org/1999/xlink" viewBox="0 0 512 512" width="128px" height="128px"><defs><linearGradient id="CCPfBiDInks7yTp1Rd7Q0a" x1="256" x2="256" y1="2" y2="504.78" gradientUnits="userSpaceOnUse"><stop offset="0" stop-color="#00efd1"/><stop offset="1" stop-color="#00acea"/></linearGradient><linearGradient id="CCPfBiDInks7yTp1Rd7Q0b" x1="198" x2="198" y1="2" y2="504.78" xlink:href="#CCPfBiDInks7yTp1Rd7Q0a"/><linearGradient id="CCPfBiDInks7yTp1Rd7Q0c" x1="267.387" x2="267.387" y1="2" y2="504.78" xlink:href="#CCPfBiDInks7yTp1Rd7Q0a"/><linearGradient id="CCPfBiDInks7yTp1Rd7Q0d" x1="127.669" x2="127.669" y1="2" y2="504.78" xlink:href="#CCPfBiDInks7yTp1Rd7Q0a"/><linearGradient id="CCPfBiDInks7yTp1Rd7Q0e" x1="196" x2="196" y1="2" y2="504.78" xlink:href="#CCPfBiDInks7yTp1Rd7Q0a"/></defs><g data-name="&lt;Group&gt;"><path fill="url(#CCPfBiDInks7yTp1Rd7Q0a)" d="M439.809,283.891l-9.975-42.383c-.054-.229-.116-.3-.186-.528A49.639,49.639,0,0,0,381.908,206H334.721a40.06,40.06,0,0,0-39.834-37H233.149l-11.9-35.155A10.054,10.054,0,0,0,211.777,127h-28.5a10.051,10.051,0,0,0-9.47,6.845L161.908,169H62.394C40.338,169,22,187.18,22,209.236V403.767A10.544,10.544,0,0,0,32.394,414H69.7a50.887,50.887,0,0,0,46.046,39.429c1.233.088,2.46.1,3.683.1a50.393,50.393,0,0,0,33.25-12.34A52.322,52.322,0,0,0,168.99,414H328.046c5.092,22,25.4,39.732,49.623,39.732S422.2,436,427.292,414h32.314A30.573,30.573,0,0,0,490,383.767V353.51c0-9.954-3.3-34.445-12.894-46.613A64.046,64.046,0,0,0,439.809,283.891ZM381.908,226a29.94,29.94,0,0,1,28.545,20.853L418.939,283H335V226Zm-191.46-79h14.161l7.421,22h-29ZM150.136,404.822a30.865,30.865,0,1,1-30.808-33.054c.73,0,1.469.026,2.209.078a30.865,30.865,0,0,1,28.6,32.976ZM377.669,433.5a30.865,30.865,0,1,1,30.865-30.865A30.9,30.9,0,0,1,377.669,433.5ZM470,383.767A10.557,10.557,0,0,1,459.606,394H427.744a50.852,50.852,0,0,0-100.15,0H169.455a50.865,50.865,0,0,0-100.192,0H42V209.236A20.566,20.566,0,0,1,62.394,189H294.887A20.323,20.323,0,0,1,315,209.236V292.52c0,5.523,4.364,10.48,9.887,10.48H426.65a43.91,43.91,0,0,1,34.75,16.52c4.655,5.9,8.6,23.313,8.6,33.99Z" data-name="&lt;Compound Path&gt;"/><path fill="url(#CCPfBiDInks7yTp1Rd7Q0b)" d="M198,105.443a10,10,0,0,0,10-10V68.5a10,10,0,0,0-20,0V95.443A10,10,0,0,0,198,105.443Z" data-name="&lt;Path&gt;"/><path fill="url(#CCPfBiDInks7yTp1Rd7Q0c)" d="M256.363,125.538a9.957,9.957,0,0,0,6.008-2.013l22.065-16.615A10,10,0,0,0,272.4,90.933l-22.065,16.616a10,10,0,0,0,6.024,17.989Z" data-name="&lt;Path&gt;"/><path fill="url(#CCPfBiDInks7yTp1Rd7Q0d)" d="M110.621,106.91l22.064,16.615a10,10,0,1,0,12.032-15.976L122.653,90.933a10,10,0,0,0-12.032,15.977Z" data-name="&lt;Path&gt;"/><path fill="url(#CCPfBiDInks7yTp1Rd7Q0e)" d="M253.774,248H224V217.194c0-5.523-3.989-10.194-9.512-10.194H177.512c-5.523,0-9.512,4.671-9.512,10.194V248H138.226C132.7,248,128,252.076,128,257.6v38.028A10.519,10.519,0,0,0,138.226,306H168v30.033c0,5.523,3.989,9.967,9.512,9.967h36.976c5.523,0,9.512-4.444,9.512-9.967V306h29.774A10.519,10.519,0,0,0,264,295.627V257.6C264,252.076,259.3,248,253.774,248ZM244,286H214.488c-5.523,0-10.488,4.1-10.488,9.627V326H188V295.627c0-5.523-4.965-9.627-10.488-9.627H148V268h29.512A10.776,10.776,0,0,0,188,257.6V227h16v30.6A10.776,10.776,0,0,0,214.488,268H244Z" data-name="&lt;Compound Path&gt;"/></g></svg>