<svg xmlns="http://www.w3.org/2000/svg"  viewBox="0 0 48 48" width="96px" height="96px"><path fill="#3dd9eb" d="M25.8,24l7.32-7.18L36,14l-3.11-2.69L21,1v18.2l-7.1-7.1l-2.8,2.8l9.1,9.1L11,33.2l2.8,2.8l7.2-7.2 V47l11.89-10.31L36,34l-2.88-2.82L25.8,24z M25,9.5l5.1,4.6L25,19.2V9.5z M25,38.5v-9.7l5.1,5.1L25,38.5z"/><polygon fill="#00b3d7" points="21,1 21,5.89 25,9.5 25,4.466"/><polygon fill="#00b3d7" points="21,47 21,42.11 25,38.5 25,43.534"/><polygon fill="#00b3d7" points="36,14 33.12,16.82 30.1,14.1 32.89,11.31"/><polygon fill="#00b3d7" points="36,34 32.89,36.69 30.1,33.9 33.12,31.18"/></svg>