<?xml version="1.0" encoding="UTF-8"?>
<svg xmlns="http://www.w3.org/2000/svg" xmlns:xlink="http://www.w3.org/1999/xlink" viewBox="0 0 100 100" width="100px" height="100px">
<g id="surface111421705">
<path style=" stroke:none;fill-rule:nonzero;fill:rgb(20.392157%,59.607846%,85.882354%);fill-opacity:1;" d="M 23.101562 94 C 21.976562 94 20.492188 93.710938 18.914062 92.578125 C 18.789062 92.484375 6 83.125 6 78 L 6.015625 77.695312 C 6.609375 65.59375 15.75 50.625 33.1875 33.1875 C 50.617188 15.757812 65.585938 6.617188 77.6875 6.015625 L 77.890625 6.007812 C 77.945312 6.007812 78 6 78.054688 6 C 83.289062 6 92.484375 18.789062 92.578125 18.914062 C 94.945312 22.234375 94.085938 25.945312 91.9375 27.476562 C 90.539062 28.53125 75.757812 38.210938 73.953125 39.289062 C 72.015625 40.398438 69.359375 40.1875 66.992188 38.765625 C 65.585938 38 61.203125 35.492188 59.171875 34.320312 C 57.359375 35.570312 52.921875 38.929688 46.007812 45.976562 C 39.070312 52.90625 35.640625 57.359375 34.335938 59.1875 C 35.515625 61.234375 38.015625 65.609375 38.804688 67.0625 C 40.21875 69.648438 40.382812 72.320312 39.242188 74.03125 C 38.226562 75.726562 28.367188 90.695312 27.476562 91.929688 C 26.679688 93.054688 25.320312 93.796875 23.765625 93.960938 C 23.5625 93.984375 23.34375 94 23.101562 94 Z M 23.101562 94 "/>
</g>
</svg>
