<svg xmlns="http://www.w3.org/2000/svg"  viewBox="0 0 512 512" width="128px" height="128px"><defs><linearGradient id="aDezXf4QG3Cs_lGfAiWMXa" x1="256.126" x2="256.126" y1="2.766" y2="500.825" gradientUnits="userSpaceOnUse"><stop offset="0" stop-color="#00efd1"/><stop offset="1" stop-color="#00acea"/></linearGradient></defs><g data-name="&lt;Group&gt;"><path fill="url(#aDezXf4QG3Cs_lGfAiWMXa)" d="M434.485,41.188a10,10,0,0,0-8.1-2.256l-249,40.783A10,10,0,0,0,169,89.583V331.931a71.024,71.024,0,0,0-22.211-3.527,72.416,72.416,0,1,0,72.114,76,10.112,10.112,0,0,0,.1-1.4V123.938L388,96.381V243.326a72.5,72.5,0,1,0,49.278,68.85L438,48.828A10,10,0,0,0,434.485,41.188Zm-17.207,270.96a52.361,52.361,0,1,1-52.1-52.509A55.134,55.134,0,0,1,393,267.411a10,10,0,0,0,15-8.659V84.619a10,10,0,0,0-11.609-9.87l-189,30.818a10,10,0,0,0-8.391,9.87V402.025q-.03.312-.042.628A52.37,52.37,0,1,1,146.789,348.4c9.306,0,18.241,2.476,27.315,7.571a10,10,0,0,0,14.9-8.72V98.079l228.968-37.5Z" data-name="&lt;Compound Path&gt;"/></g></svg>