<svg xmlns="http://www.w3.org/2000/svg" width="48" height="48" viewBox="0 0 48 48"><g transform="translate(0 -1004.362)"><rect width="4.29" height="21.403" x="17.566" y="1017.661" fill="#c2e4f8" stroke="#249fe6" stroke-linecap="round" stroke-width="1.5" ry="1.327"/><rect width="4.29" height="21.403" x="26.145" y="1017.661" fill="#c2e4f8" stroke="#249fe6" stroke-linecap="round" stroke-width="1.5" ry="1.327"/><path fill="#c2e4f8" stroke="#249fe6" stroke-linecap="round" stroke-linejoin="round" stroke-width="1.5" d="M 7 2 C 4.23 2 2 4.2299905 2 7 L 2 41 C 2 43.77001 4.23 46 7 46 L 41 46 C 43.77 46 46 43.77001 46 41 L 46 7 C 46 4.2299905 43.77 2 41 2 L 7 2 z M 10.207031 6.1503906 L 37.792969 6.1503906 C 40.040316 6.1503906 41.849609 7.9596766 41.849609 10.207031 L 41.849609 37.792969 C 41.849609 40.040323 40.040316 41.849609 37.792969 41.849609 L 10.207031 41.849609 C 7.9596843 41.849609 6.1503906 40.040323 6.1503906 37.792969 L 6.1503906 10.207031 C 6.1503906 7.9596766 7.9596843 6.1503906 10.207031 6.1503906 z " transform="translate(0 1004.362)"/></g></svg>