<svg xmlns="http://www.w3.org/2000/svg"  viewBox="0 0 48 48" width="96px" height="96px"><path fill="#0277bd" d="M5,14.55c-0.553,0-1-0.448-1-1v-1.446C4,7.635,7.636,4,12.104,4h1.445c0.553,0,1,0.448,1,1	s-0.447,1-1,1h-1.445C8.738,6,6,8.738,6,12.104v1.446C6,14.102,5.553,14.55,5,14.55z"/><path fill="#0277bd" d="M43,14.55c-0.553,0-1-0.448-1-1v-1.446C42,8.738,39.262,6,35.896,6H34.45c-0.553,0-1-0.448-1-1	s0.447-1,1-1h1.445C40.364,4,44,7.635,44,12.104v1.446C44,14.102,43.553,14.55,43,14.55z"/><path fill="#0277bd" d="M13.55,44h-1.445C7.636,44,4,40.365,4,35.896V34.45c0-0.552,0.447-1,1-1s1,0.448,1,1v1.446	C6,39.262,8.738,42,12.104,42h1.445c0.553,0,1,0.448,1,1S14.103,44,13.55,44z"/><path fill="#0277bd" d="M35.896,44H34.45c-0.553,0-1-0.448-1-1s0.447-1,1-1h1.445C39.262,42,42,39.262,42,35.896V34.45	c0-0.552,0.447-1,1-1s1,0.448,1,1v1.446C44,40.365,40.364,44,35.896,44z"/><path fill="#80d8ff" d="M31,24c0,3.87-3.13,7-7,7s-7-3.13-7-7s3.13-7,7-7c0.34,0,0.67,0.02,0.99,0.08	C24.37,17.7,24,18.56,24,19.5c0,1.93,1.57,3.5,3.5,3.5c1.26,0,2.36-0.67,2.97-1.67C30.81,22.15,31,23.05,31,24z"/><path fill="#80d8ff" d="M35.38,9H12.62C10.62,9,9,10.62,9,12.62v22.76c0,2,1.62,3.62,3.62,3.62h22.76	c2,0,3.62-1.62,3.62-3.62V12.62C39,10.62,37.38,9,35.38,9z M24,34c-5.52,0-10-4.48-10-10c0-5.52,4.48-10,10-10s10,4.48,10,10	C34,29.52,29.52,34,24,34z"/><path fill="#0277bd" d="M31,24c0,3.87-3.13,7-7,7s-7-3.13-7-7s3.13-7,7-7c0.34,0,0.67,0.02,0.99,0.08	C24.37,17.7,24,18.56,24,19.5c0,1.93,1.57,3.5,3.5,3.5c1.26,0,2.36-0.67,2.97-1.67C30.81,22.15,31,23.05,31,24z"/><path fill="#0277bd" d="M31,24c0,3.87-3.13,7-7,7s-7-3.13-7-7s3.13-7,7-7c0.34,0,0.67,0.02,0.99,0.08	C24.37,17.7,24,18.56,24,19.5c0,1.93,1.57,3.5,3.5,3.5c1.26,0,2.36-0.67,2.97-1.67C30.81,22.15,31,23.05,31,24z"/></svg>