<svg xmlns="http://www.w3.org/2000/svg"  viewBox="0 0 40 40" width="120px" height="120px"><path fill="#dff0fe" d="M11.5 2.5H28.5V20.5H11.5z"/><path fill="#4788c7" d="M28,3v17H12V3H28 M29,2H11v19h18V2L29,2z"/><path fill="#4788c7" d="M14 8H18V11H14zM22 8H26V11H22z"/><g><path fill="#98ccfd" d="M17.5,38.5v-4H17c-4.687,0-8.5-3.813-8.5-8.5v-8c0-1.378,1.121-2.5,2.5-2.5h18 c1.379,0,2.5,1.122,2.5,2.5v8c0,4.687-3.813,8.5-8.5,8.5h-0.5v4H17.5z"/><path fill="#4788c7" d="M29,16c1.103,0,2,0.897,2,2v8c0,4.411-3.589,8-8,8h-1v1v3h-4v-3v-1h-1c-4.411,0-8-3.589-8-8v-8 c0-1.103,0.897-2,2-2H29 M29,15H11c-1.657,0-3,1.343-3,3v8c0,4.971,4.029,9,9,9v4h6v-4c4.971,0,9-4.029,9-9v-8 C32,16.343,30.657,15,29,15L29,15z"/></g></svg>